<?xml version="1.0" encoding="utf-8"?>
<!-- Generator: Adobe Illustrator 16.0.4, SVG Export Plug-In . SVG Version: 6.00 Build 0)  -->
<!DOCTYPE svg PUBLIC "-//W3C//DTD SVG 1.1//EN" "http://www.w3.org/Graphics/SVG/1.1/DTD/svg11.dtd">
<svg version="1.1" id="Layer_1" xmlns="http://www.w3.org/2000/svg" xmlns:xlink="http://www.w3.org/1999/xlink" x="0px" y="0px"
	 width="330px" height="330px" viewBox="0 0 330 330" enable-background="new 0 0 330 330" xml:space="preserve">
<g>
	<g>
		<path d="M65.401,185.625h4.112v-37.44h6.368v43.264h-16.85V90.869h16.85v43.266h-6.368v-37.44h-4.112v41.555l10.481-0.003v5.83
			H65.403L65.401,185.625z"/>
		<path d="M100.249,191.449h-6.367V90.867h8.424c4.646,0,8.424,3.779,8.424,8.424v39.795c0,4.643-3.777,8.424-8.424,8.424h-2.057
			V191.449z M102.307,141.682c1.132,0,2.055-0.923,2.055-2.057V98.75c0-1.133-0.923-2.057-2.057-2.057h-2.057v44.988
			L102.307,141.682z"/>
		<path d="M145.575,98.761v84.807c0,4.646-3.777,8.461-8.422,8.461c-4.646,0-8.425-3.814-8.425-8.461V98.761
			c0-4.646,3.779-8.426,8.423-8.426C141.797,90.335,145.575,94.116,145.575,98.761z M139.209,98.217
			c0-1.132-0.924-2.056-2.059-2.056c-1.133,0-2.055,0.924-2.055,2.056v85.89c0,1.137,0.922,2.057,2.057,2.057
			c1.133,0,2.057-0.92,2.057-2.057V98.217z"/>
		<path d="M190.908,183.568c0,4.646-3.779,8.461-8.424,8.461c-4.646,0-8.426-3.814-8.426-8.461V98.217
			c0-1.132-0.922-2.054-2.057-2.054c-1.133,0-2.057,0.922-2.057,2.054v93.232h-6.367V98.761c0-4.646,3.779-8.425,8.423-8.425
			c4.646,0,8.424,3.779,8.424,8.425v85.346c0,1.137,0.922,2.057,2.057,2.057c1.133,0,2.057-0.92,2.057-2.057V90.876h6.369V183.568z"
			/>
		<path d="M225.639,139.656c0,3.521-2.168,6.537-5.238,7.797v43.997h-6.369v-43.997c-3.07-1.262-5.244-4.277-5.244-7.797V90.869
			h6.369V140.2c0,1.132,0.926,2.054,2.057,2.054c1.137,0,2.057-0.922,2.057-2.054V90.869h6.369V139.656z"/>
		<path d="M270.967,98.759v92.69h-6.369V98.217c0-1.134-0.92-2.056-2.057-2.056c-1.131,0-2.057,0.922-2.057,2.056v93.232h-6.363
			V98.217c0-1.134-0.926-2.056-2.062-2.056c-1.131,0-2.051,0.922-2.051,2.056v93.232h-6.369v-92.69c0-4.645,3.779-8.424,8.42-8.424
			c1.986,0,3.803,0.692,5.244,1.84c1.441-1.147,3.258-1.84,5.238-1.84C267.188,90.335,270.967,94.115,270.967,98.759z"/>
	</g>
	<g>
		<path d="M110.959,239.449V213.82h5.436c2.111,0,3.714,0.574,4.807,1.729c1.092,1.148,1.638,2.783,1.638,4.893v11.988
			c0,2.402-0.583,4.172-1.746,5.309c-1.165,1.143-2.839,1.711-5.022,1.711H110.959z M114.63,217.271v18.721h1.692
			c1.032,0,1.765-0.258,2.197-0.773c0.432-0.516,0.646-1.324,0.646-2.432v-12.346c0-1.008-0.203-1.787-0.611-2.338
			c-0.409-0.551-1.152-0.832-2.232-0.832H114.63z"/>
		<path d="M126.295,239.449V213.82h10.943v3.451h-7.273v7.529h6.338v3.451h-6.338v7.523h7.273v3.674H126.295z"/>
		<path d="M151.495,221.197h-3.672v-0.826c0-0.844-0.198-1.564-0.596-2.18c-0.395-0.609-1.062-0.92-1.996-0.92
			c-0.506,0-0.912,0.1-1.225,0.293c-0.312,0.188-0.564,0.428-0.756,0.715c-0.193,0.316-0.324,0.668-0.396,1.066
			c-0.072,0.393-0.107,0.809-0.107,1.242c0,0.504,0.018,0.92,0.055,1.26c0.035,0.334,0.125,0.633,0.27,0.896
			c0.143,0.264,0.353,0.492,0.629,0.686c0.275,0.193,0.654,0.387,1.135,0.574l2.808,1.119c0.815,0.311,1.477,0.68,1.98,1.096
			c0.504,0.422,0.899,0.908,1.188,1.459c0.264,0.574,0.443,1.23,0.539,1.963s0.145,1.564,0.145,2.502
			c0,1.078-0.108,2.08-0.324,3.006c-0.217,0.926-0.564,1.711-1.044,2.355c-0.504,0.674-1.165,1.201-1.98,1.588
			c-0.815,0.381-1.812,0.574-2.988,0.574c-0.888,0-1.716-0.158-2.483-0.469c-0.769-0.311-1.428-0.744-1.98-1.295
			c-0.552-0.551-0.99-1.195-1.313-1.928s-0.486-1.529-0.486-2.391v-1.371h3.673v1.154c0,0.674,0.197,1.277,0.593,1.816
			c0.397,0.539,1.062,0.809,1.998,0.809c0.624,0,1.11-0.088,1.459-0.27c0.347-0.176,0.616-0.434,0.81-0.773
			c0.192-0.334,0.307-0.738,0.342-1.207c0.037-0.469,0.055-0.99,0.055-1.564c0-0.674-0.025-1.225-0.072-1.658
			c-0.049-0.428-0.144-0.779-0.289-1.043c-0.168-0.264-0.389-0.48-0.664-0.645c-0.277-0.17-0.644-0.352-1.1-0.545l-2.627-1.078
			c-1.584-0.645-2.646-1.506-3.187-2.572s-0.81-2.408-0.81-4.014c0-0.961,0.131-1.875,0.395-2.736
			c0.264-0.867,0.661-1.605,1.188-2.232c0.504-0.627,1.147-1.119,1.927-1.494c0.779-0.369,1.711-0.557,2.79-0.557
			c0.911,0,1.746,0.164,2.502,0.504c0.756,0.334,1.409,0.779,1.962,1.33c1.104,1.154,1.656,2.473,1.656,3.961V221.197z"/>
		<path d="M154.338,239.449V213.82h3.672v25.629H154.338z"/>
		<path d="M161.358,219.867c0-1.031,0.18-1.945,0.54-2.736s0.839-1.453,1.44-1.98c0.575-0.504,1.229-0.891,1.961-1.154
			c0.732-0.264,1.47-0.393,2.214-0.393s1.482,0.129,2.215,0.393s1.395,0.65,1.998,1.154c0.574,0.527,1.043,1.189,1.404,1.98
			c0.359,0.791,0.539,1.705,0.539,2.736v1.295h-3.672v-1.295c0-0.891-0.246-1.541-0.738-1.963s-1.074-0.633-1.746-0.633
			s-1.256,0.211-1.746,0.633c-0.492,0.422-0.738,1.072-0.738,1.963v13.535c0,0.891,0.246,1.541,0.738,1.963
			c0.49,0.416,1.074,0.627,1.746,0.627s1.254-0.211,1.746-0.627c0.492-0.422,0.738-1.072,0.738-1.963v-4.822h-2.916v-3.24h6.588
			v8.062c0,1.078-0.18,2.004-0.539,2.771c-0.361,0.768-0.83,1.406-1.404,1.91c-0.604,0.527-1.266,0.92-1.998,1.184
			s-1.471,0.398-2.215,0.398s-1.482-0.135-2.214-0.398c-0.732-0.264-1.386-0.656-1.961-1.184c-0.602-0.504-1.08-1.143-1.44-1.91
			s-0.54-1.693-0.54-2.771V219.867z"/>
		<path d="M176.766,239.449V213.82h3.527l5.543,15.439h0.074V213.82h3.67v25.629h-3.457l-5.613-15.41h-0.072v15.41H176.766z"/>
		<path d="M211.254,232.143v1.582c0,0.791-0.152,1.541-0.451,2.25s-0.715,1.342-1.242,1.893s-1.143,0.99-1.852,1.312
			s-1.471,0.486-2.285,0.486c-0.697,0-1.406-0.094-2.127-0.287s-1.367-0.527-1.945-1.008c-0.574-0.48-1.049-1.102-1.42-1.857
			c-0.373-0.756-0.561-1.717-0.561-2.895v-14.115c0-0.838,0.146-1.617,0.434-2.338s0.697-1.342,1.225-1.869
			c0.527-0.533,1.158-0.943,1.891-1.242c0.732-0.305,1.543-0.451,2.428-0.451c1.729,0,3.135,0.562,4.213,1.693
			c0.527,0.551,0.943,1.201,1.242,1.957s0.451,1.582,0.451,2.467v1.441h-3.674v-1.225c0-0.721-0.205-1.342-0.609-1.869
			c-0.41-0.527-0.961-0.797-1.658-0.797c-0.914,0-1.518,0.287-1.816,0.85c-0.301,0.562-0.451,1.277-0.451,2.139v13.107
			c0,0.744,0.164,1.365,0.486,1.869s0.908,0.756,1.746,0.756c0.24,0,0.498-0.041,0.773-0.123c0.275-0.088,0.533-0.223,0.773-0.416
			c0.217-0.193,0.398-0.457,0.539-0.791c0.146-0.334,0.217-0.756,0.217-1.26v-1.26H211.254z"/>
		<path d="M214.025,219.867c0-1.031,0.182-1.945,0.539-2.736c0.363-0.791,0.838-1.453,1.441-1.98
			c0.574-0.504,1.23-0.891,1.963-1.154s1.471-0.393,2.215-0.393c0.738,0,1.477,0.129,2.209,0.393s1.4,0.65,1.998,1.154
			c0.58,0.527,1.049,1.189,1.406,1.98s0.539,1.705,0.539,2.736v13.535c0,1.078-0.182,2.004-0.539,2.771s-0.826,1.406-1.406,1.91
			c-0.598,0.527-1.266,0.92-1.998,1.184s-1.471,0.398-2.209,0.398c-0.744,0-1.482-0.135-2.215-0.398s-1.389-0.656-1.963-1.184
			c-0.604-0.504-1.078-1.143-1.441-1.91c-0.357-0.768-0.539-1.693-0.539-2.771V219.867z M217.699,233.402
			c0,0.891,0.246,1.541,0.738,1.963c0.486,0.416,1.072,0.627,1.746,0.627c0.668,0,1.254-0.211,1.746-0.627
			c0.486-0.422,0.732-1.072,0.732-1.963v-13.535c0-0.891-0.246-1.541-0.732-1.963c-0.492-0.422-1.078-0.633-1.746-0.633
			c-0.674,0-1.26,0.211-1.746,0.633c-0.492,0.422-0.738,1.072-0.738,1.963V233.402z"/>
		<path d="M229.359,239.449v-3.674h3.674v3.674H229.359z"/>
	</g>
</g>
</svg>
